<mxfile host="app.diagrams.net" modified="2023-05-15T09:35:05.765Z" agent="Mozilla/5.0 (Windows NT 10.0; Win64; x64) AppleWebKit/537.36 (KHTML, like Gecko) Chrome/113.0.0.0 Safari/537.36 Edg/113.0.1774.35" version="21.3.0" etag="AyDiE_towGpBLsS3UGf4" type="github">
  <diagram name="Page-1" id="8H69tLV8Ewbhf_qb2Zy6">
    <mxGraphModel>
      <root>
        <mxCell id="0" />
        <mxCell id="1" parent="0" />
      </root>
    </mxGraphModel>
  </diagram>
</mxfile>
